{
	"asset":{
		"generator":"Khronos glTF Blender I/O v4.3.47",
		"version":"2.0"
	},
	"scene":0,
	"scenes":[
		{
			"name":"Scene",
			"nodes":[
				0
			]
		}
	],
	"nodes":[
		{
			"mesh":0,
			"name":"cave-col"
		}
	],
	"meshes":[
		{
			"name":"Cube.002",
			"primitives":[
				{
					"attributes":{
						"POSITION":0,
						"NORMAL":1,
						"TEXCOORD_0":2
					},
					"indices":3
				}
			]
		}
	],
	"accessors":[
		{
			"bufferView":0,
			"componentType":5126,
			"count":1329,
			"max":[
				8.028216361999512,
				6.599771976470947,
				8.90992546081543
			],
			"min":[
				-10.134381294250488,
				-1.4430902004241943,
				-12.10384464263916
			],
			"type":"VEC3"
		},
		{
			"bufferView":1,
			"componentType":5126,
			"count":1329,
			"type":"VEC3"
		},
		{
			"bufferView":2,
			"componentType":5126,
			"count":1329,
			"type":"VEC2"
		},
		{
			"bufferView":3,
			"componentType":5123,
			"count":5964,
			"type":"SCALAR"
		}
	],
	"bufferViews":[
		{
			"buffer":0,
			"byteLength":15948,
			"byteOffset":0,
			"target":34962
		},
		{
			"buffer":0,
			"byteLength":15948,
			"byteOffset":15948,
			"target":34962
		},
		{
			"buffer":0,
			"byteLength":10632,
			"byteOffset":31896,
			"target":34962
		},
		{
			"buffer":0,
			"byteLength":11928,
			"byteOffset":42528,
			"target":34963
		}
	],
	"buffers":[
		{
			"byteLength":54456,
			"uri":"cave.bin"
		}
	]
}
